# xmcd CD Database Entry
#
# Track frame offsets:
# 150
# 900
# 1650
# 2400
# 99667
#
# Disc length: 4440 seconds
#
# Revision: 3
# Processed by: cddbd v1.5.2PL0 Copyright (c) Steve Scherf et al.
# Submitted via: tcd 2.0b
#
DISCID=1c115605
DTITLE=BOA Jewel song
DYEAR=1900
DGENRE=
TTITLE0=jewel song
TTITLE1=beside you
TTITLE2=トラック 3
TTITLE3=トラック 4
TTITLE4=トラック 5
EXTD=
EXTT0=
EXTT1=
EXTT2=
EXTT3=
EXTT4=
PLAYORDER=
